<svg height="48pt" viewBox="0 0 48 48" width="48pt" xmlns="http://www.w3.org/2000/svg" xmlns:xlink="http://www.w3.org/1999/xlink"><linearGradient id="a"><stop offset="0" stop-color="#3494e6"/><stop offset=".98695652174" stop-color="#ec6ead"/></linearGradient><linearGradient id="b" gradientTransform="matrix(38 0 0 23 7 20)" gradientUnits="userSpaceOnUse" x1="0" x2="1" xlink:href="#a" y1=".5" y2=".5"/><linearGradient id="c" gradientTransform="matrix(43.6 0 0 23.49 1.92 10.42)" gradientUnits="userSpaceOnUse" x1="0" x2="1" xlink:href="#a" y1=".5" y2=".5"/><linearGradient id="d" gradientUnits="userSpaceOnUse" x1="2" x2="46" xlink:href="#a" y1="24" y2="24"/><path d="m10 21.5c0-.828.672-1.5 1.5-1.5s1.5.672 1.5 1.5-.672 1.5-1.5 1.5-1.5-.672-1.5-1.5zm-3 5c0-.828.672-1.5 1.5-1.5s1.5.672 1.5 1.5-.672 1.5-1.5 1.5-1.5-.672-1.5-1.5zm0 5c0-.828.672-1.5 1.5-1.5s1.5.672 1.5 1.5-.672 1.5-1.5 1.5-1.5-.672-1.5-1.5zm5-5c0-.828.672-1.5 1.5-1.5s1.5.672 1.5 1.5-.672 1.5-1.5 1.5-1.5-.672-1.5-1.5zm2 5c0-.828.672-1.5 1.5-1.5s1.5.672 1.5 1.5-.672 1.5-1.5 1.5-1.5-.672-1.5-1.5zm20 1c0-.828.672-1.5 1.5-1.5s1.5.672 1.5 1.5-.672 1.5-1.5 1.5-1.5-.672-1.5-1.5zm5-1c0-.828.672-1.5 1.5-1.5s1.5.672 1.5 1.5-.672 1.5-1.5 1.5-1.5-.672-1.5-1.5zm0-5c0-.828.672-1.5 1.5-1.5s1.5.672 1.5 1.5-.672 1.5-1.5 1.5-1.5-.672-1.5-1.5zm-32 11c0-.828.672-1.5 1.5-1.5s1.5.672 1.5 1.5-.672 1.5-1.5 1.5-1.5-.672-1.5-1.5zm5 0c0-.828.672-1.5 1.5-1.5s1.5.672 1.5 1.5-.672 1.5-1.5 1.5-1.5-.672-1.5-1.5zm5 0c0-.828.672-1.5 1.5-1.5s1.5.672 1.5 1.5-.672 1.5-1.5 1.5-1.5-.672-1.5-1.5zm5 0c0-.828.672-1.5 1.5-1.5s1.5.672 1.5 1.5-.672 1.5-1.5 1.5-1.5-.672-1.5-1.5zm5 0c0-.828.672-1.5 1.5-1.5s1.5.672 1.5 1.5-.672 1.5-1.5 1.5-1.5-.672-1.5-1.5zm5 0c0-.828.672-1.5 1.5-1.5s1.5.672 1.5 1.5-.672 1.5-1.5 1.5-1.5-.672-1.5-1.5zm5 0c0-.828.672-1.5 1.5-1.5s1.5.672 1.5 1.5-.672 1.5-1.5 1.5-1.5-.672-1.5-1.5zm5-1c0-.828.672-1.5 1.5-1.5s1.5.672 1.5 1.5-.672 1.5-1.5 1.5-1.5-.672-1.5-1.5zm0 5c0-.828.672-1.5 1.5-1.5s1.5.672 1.5 1.5-.672 1.5-1.5 1.5-1.5-.672-1.5-1.5z" fill="url(#b)" fill-rule="evenodd"/><path d="m42.5 12.08-.08-1.49 2.99-.17.09 1.5.02.37v.12c-.01.68-.12 1.35-.32 2-.22.73-.49 1.44-.81 2.13-.77 1.62-1.67 3.19-2.69 4.67-1.14 1.7-2.36 3.34-3.66 4.93-1.29 1.6-2.65 3.14-4.06 4.64-.91.97-1.99 1.76-3.2 2.33-1.12.52-2.34.79-3.58.8-1.52-.01-3.01-.43-4.31-1.22-1.39-.87-2.55-2.05-3.38-3.46l-5.15-8.47c-.01-.01-.01-.02-.02-.03-.32-.56-.76-1.03-1.3-1.4-.35-.23-.76-.36-1.18-.37-.42.01-.82.13-1.17.35-.52.34-.97.79-1.31 1.32 0 .01-.01.02-.01.03l-4.12 6.17-.83 1.25-2.5-1.66.83-1.25 4.11-6.17c.57-.88 1.32-1.64 2.21-2.21.83-.54 1.8-.82 2.79-.83 1.02.01 2.02.32 2.87.89.9.61 1.65 1.42 2.2 2.36l5.15 8.47c.01 0 .01.01.01.02.59.99 1.4 1.83 2.38 2.44.82.5 1.76.76 2.73.77.8-.01 1.58-.18 2.31-.52.86-.41 1.63-.97 2.28-1.67 1.37-1.44 2.68-2.93 3.93-4.48 1.23-1.51 2.4-3.09 3.5-4.71.93-1.36 1.75-2.79 2.46-4.28.26-.55.47-1.12.65-1.71.11-.37.18-.75.19-1.14z" fill="url(#c)"/><path d="m42 36.73c0-1.104.896-2 2-2 1.104 0 2 .896 2 2v4.27c0 2.76-2.24 5-5 5h-34c-2.76 0-5-2.24-5-5v-34c0-2.76 2.24-5 5-5h34c2.76 0 5 2.24 5 5v17.64c0 1.104-.896 2-2 2-1.104 0-2-.896-2-2v-15.64c0-1.656-1.344-3-3-3h-30c-1.656 0-3 1.344-3 3v30c0 1.656 1.344 3 3 3h30c1.656 0 3-1.344 3-3z" fill="url(#d)"/></svg>